<svg xmlns="http://www.w3.org/2000/svg" width="400" height="400"><path d="M0 0h400v400H0V0Z" fill="#FEFEFE"/><path d="M57 66h283v118h-49v-63h-34v96c-8.999-7.713-17.637-15.569-25.97-23.989-2.907-2.927-5.81-5.787-8.968-8.448-4.763-4.023-9.071-8.523-13.433-12.971-3.104-3.147-6.248-6.175-9.598-9.06-4.943-4.263-9.463-8.914-14.031-13.571-3.117-3.154-6.244-6.216-9.625-9.086-6.397-5.666-12.333-11.833-18.375-17.875l-54-1v126h33v-99h2v2l1.72.73c2.74 1.526 4.57 3.352 6.764 5.594l2.586 2.62 2.68 2.744c5.296 5.402 10.58 10.695 16.33 15.616 4.181 3.692 8.016 7.754 11.92 11.735 3.877 3.922 7.837 7.654 12.043 11.223L194 202l2.587 1.92c3.564 4.55 3.077 8.485 2.98 14.112l.003 3.372c-.004 3.674-.043 7.348-.082 11.022-.009 2.549-.016 5.097-.021 7.646-.017 6.02-.057 12.041-.107 18.062-.056 6.856-.083 13.712-.108 20.568-.053 14.1-.14 28.199-.252 42.298-1.11-.942-2.219-1.886-3.327-2.831l-1.872-1.593c-2.47-2.162-4.76-4.477-7.051-6.826-4.274-4.785-4.274-4.785-10.024-7.012l-2.718-.016-3.117-.034-3.43-.007-3.666-.03c-3.925-.031-7.85-.048-11.775-.065-2.42-.017-4.84-.035-7.259-.054-8.983-.063-17.966-.109-26.948-.157L57 302V66Z" fill="#34A574"/><path d="M103 121c54 0 54 0 66.875 9.563 3.867 5.378 3.867 5.378 5.491 8.016 2.133 3.16 4.67 5.33 7.603 7.73 4.305 3.585 8.111 7.734 12.031 11.73a204.137 204.137 0 0 0 12.031 11.215c3.307 2.932 6.376 6.092 9.469 9.246 5.585 5.676 5.585 5.676 11.5 11 4.784 4.029 9.084 8.56 13.481 13 4.345 4.372 8.784 8.55 13.519 12.5l1 1 1-95h34v63h49v118h-93v64c-7.777-6.666-15.425-13.337-22.625-20.625-3.652-3.692-7.372-7.18-11.324-10.543-3.475-3.104-6.697-6.46-9.95-9.793-1.932-2.08-1.932-2.08-4.101-3.039l.012-1.768c.096-14.232.136-28.464.115-42.696-.009-6.883 0-13.765.055-20.648.052-6.647.051-13.292.019-19.938-.004-2.532.01-5.064.041-7.595.848-13.608.848-13.608-3.403-26.065-2.49-2.528-4.857-4.39-7.839-6.29a173.333 173.333 0 0 1-4.125-3.625l-1.945-1.668c-4.182-3.7-8.022-7.762-11.93-11.746-3.232-3.27-6.49-6.437-9.977-9.438-4.356-3.75-8.373-7.797-12.398-11.898a1800.445 1800.445 0 0 0-4.21-4.273l-1.846-1.88c-1.52-1.567-1.52-1.567-3.569-2.472v-2h-2v99h-33V121Z" fill="#8DC63F"/><path d="M136 148h2v2l1.72.73c2.74 1.526 4.57 3.352 6.764 5.594l2.586 2.62 2.68 2.744c5.296 5.402 10.58 10.695 16.33 15.616 4.181 3.692 8.016 7.754 11.92 11.735 3.877 3.922 7.837 7.654 12.043 11.223L194 202l2.587 1.92c3.564 4.55 3.077 8.485 2.98 14.112l.003 3.372c-.004 3.674-.043 7.348-.082 11.022-.009 2.549-.016 5.097-.021 7.646-.017 6.02-.057 12.041-.107 18.062-.056 6.856-.083 13.712-.108 20.568-.053 14.1-.14 28.199-.252 42.298-1.11-.942-2.219-1.886-3.327-2.831l-1.872-1.593c-2.47-2.162-4.76-4.477-7.051-6.826-4.274-4.785-4.274-4.785-10.024-7.012l-2.718-.016-3.124-.034-3.424-.007-3.607-.03c-3.264-.026-6.528-.043-9.793-.056-3.41-.015-6.822-.042-10.233-.068-6.46-.047-12.92-.083-19.38-.116-8.075-.042-16.15-.098-24.226-.153-14.407-.099-28.814-.178-43.221-.258V184h45v63h34v-99Z" fill="#375C93"/><path d="M103 121c54 0 54 0 66.875 9.563 3.867 5.378 3.867 5.378 5.491 8.016 2.133 3.16 4.67 5.33 7.603 7.73 4.305 3.585 8.111 7.734 12.031 11.73a204.137 204.137 0 0 0 12.031 11.215c3.307 2.932 6.376 6.092 9.469 9.246 5.585 5.676 5.585 5.676 11.5 11 4.784 4.029 9.084 8.56 13.481 13 4.345 4.372 8.784 8.55 13.519 12.5l1 1 1-95h34v126c-51.822 0-51.822 0-68.27-16.207-1.183-1.2-2.364-2.4-3.542-3.606-3.606-3.684-7.23-7.27-11.137-10.636-4.95-4.27-9.477-8.926-14.051-13.59-3.24-3.278-6.507-6.452-10-9.461-4.935-4.25-9.443-8.893-14-13.54-3.232-3.27-6.49-6.436-9.977-9.437-4.356-3.75-8.373-7.797-12.398-11.898a1800.445 1800.445 0 0 0-4.21-4.273l-1.846-1.88c-1.52-1.567-1.52-1.567-3.569-2.472v-2h-2v99h-33V121Z" fill="#FEFEFE"/><path d="M57 66h142v96c-4.706-4.033-9.128-8.028-13.438-12.438-3.408-3.45-6.791-6.867-10.5-10C168.75 134.026 162.939 127.939 157 122l-54-1v126h-1v-63H57V66Z" fill="#28AAE0"/><path d="M136 148h2v2l1.72.73c2.74 1.526 4.57 3.352 6.764 5.594l2.586 2.62 2.68 2.744c5.326 5.432 10.6 10.805 16.47 15.655C170 179 170 179 174 184h-37v63h-1v-99Z" fill="#32A9DD"/><path d="M222 184h35v33a481.806 481.806 0 0 1-29.42-27.404c-1.853-1.872-3.717-3.733-5.58-5.596Z" fill="#8DC63F"/></svg>