<?xml version="1.0" encoding="UTF-8"?>
<svg width="244px" height="46px" viewBox="0 0 244 46" version="1.1" xmlns="http://www.w3.org/2000/svg" xmlns:xlink="http://www.w3.org/1999/xlink">
    <title>Group 9 Copy</title>
    <defs>
        <linearGradient x1="49.9999617%" y1="0.000323369119%" x2="49.9999617%" y2="100.000247%" id="linearGradient-1">
            <stop stop-color="#00E6FE" offset="0%"></stop>
            <stop stop-color="#00A6FF" offset="99.4168795%"></stop>
        </linearGradient>
        <linearGradient x1="50%" y1="0%" x2="50%" y2="100%" id="linearGradient-2">
            <stop stop-color="#A52CE1" offset="0%"></stop>
            <stop stop-color="#2B06C9" offset="100%"></stop>
        </linearGradient>
    </defs>
    <g id="Page-1" stroke="none" stroke-width="1" fill="none" fill-rule="evenodd">
        <g id="Group" transform="translate(-583.000000, -130.000000)">
            <g id="Group-9-Copy" transform="translate(583.000000, 130.000000)">
                <g id="Group-6">
                    <g id="Group-5">
                        <g id="Group-3" transform="translate(0.000000, 0.047155)" fill="url(#linearGradient-1)">
                            <polygon id="Fill-1" points="-4.74343167e-15 0.286941564 -4.74343167e-15 11.4234848 -4.74343167e-15 44.4491879 10.9880109 33.6059405 10.9880109 11.4234848 22.0734884 11.4234848 22.0734884 22.5961465 33.2444159 11.4957218 33.2444159 11.4234848 33.2444159 9.16774952 33.2444159 0.286941564"></polygon>
                        </g>
                        <polygon id="Fill-4" fill="url(#linearGradient-2)" points="33.1565959 11.6240094 33.1565959 33.8061307 22.0714523 33.8061307 22.0714523 22.6341378 10.9889789 33.6519581 10.9889789 33.7241952 10.9889789 35.9802649 10.9889789 44.8607384 44.1449406 44.8607384 44.1449406 0.780761975"></polygon>
                    </g>
                    <path d="M74.3435622,36.4910743 L74.3435622,36.4529492 L77.4638249,36.4529492 L77.4638249,9.72725213 L72.4409631,9.72725213 L72.4409631,26.3116719 L59.3891327,9.76537723 L55.3175705,9.76537723 L55.3175705,36.4529492 L60.3404323,36.4529492 L60.3404323,18.4579007 L74.3435622,36.4910743 Z M91.200591,36.9485756 C94.0544897,36.9485756 97.2889083,35.9573229 99.2676115,33.8985674 L96.2995568,30.9629344 C95.2341012,32.0685624 92.9890342,32.7166892 91.2766949,32.7166892 C88.0042244,32.7166892 85.9874692,31.0391846 85.6830534,28.7135534 L100.333067,28.7135534 C101.056055,20.9741575 97.1367004,17.085397 90.8581231,17.085397 C84.7698057,17.085397 80.8885034,21.2029081 80.8885034,26.9216735 C80.8885034,32.9454398 84.7317538,36.9485756 91.200591,36.9485756 Z M95.880985,24.862918 L85.7591573,24.862918 C86.444093,22.4229114 88.4989001,21.2029081 91.0103311,21.2029081 C93.6739699,21.2029081 95.5765691,22.4229114 95.880985,24.862918 Z M112.776066,36.8723254 C118.864383,36.8723254 122.555425,32.4879385 122.555425,27.0741739 C122.555425,21.6985344 118.712175,17.2760225 112.738014,17.2760225 C106.763852,17.2760225 103.034758,21.6985344 103.034758,27.0741739 C103.034758,32.4879385 106.687748,36.8723254 112.776066,36.8723254 Z M112.776066,32.6023139 C109.389439,32.6023139 107.6771,29.9335567 107.6771,27.0741739 C107.6771,24.2529163 109.427491,21.5079089 112.776066,21.5079089 C115.896328,21.5079089 117.875031,24.2529163 117.875031,27.0741739 C117.875031,29.9335567 116.162692,32.6023139 112.776066,32.6023139 Z M138.004531,36.4529492 L138.004531,14.3403896 L146.452071,14.3403896 L146.452071,9.76537723 L124.534129,9.76537723 L124.534129,9.76537723 L124.534129,14.3403896 L132.981669,14.3403896 L132.981669,36.4529492 L138.004531,36.4529492 Z M153.491688,36.9485756 C156.345587,36.9485756 159.580005,35.9573229 161.558709,33.8985674 L158.590654,30.9629344 C157.525198,32.0685624 155.280131,32.7166892 153.567792,32.7166892 C150.295321,32.7166892 148.278566,31.0391846 147.97415,28.7135534 L162.624164,28.7135534 C163.347152,20.9741575 159.427798,17.085397 153.14922,17.085397 C147.060903,17.085397 143.179601,21.2029081 143.179601,26.9216735 C143.179601,32.9454398 147.022851,36.9485756 153.491688,36.9485756 Z M158.172082,24.862918 L148.050254,24.862918 C148.73519,22.4229114 150.789997,21.2029081 153.301428,21.2029081 C155.965067,21.2029081 157.867666,22.4229114 158.172082,24.862918 Z M175.067163,37.0248258 C177.844958,37.0248258 180.128077,36.1860735 182.29704,34.0510678 L179.176777,31.0010595 C178.035218,32.1448126 176.55119,32.5641888 175.067163,32.5641888 C172.175212,32.5641888 169.739885,30.6579336 169.739885,27.0741739 C169.739885,23.7954151 172.023004,21.5079089 175.143267,21.5079089 C176.437034,21.5079089 177.806906,22.0035353 178.910413,22.9947879 L181.840416,19.9066546 C179.785609,17.8860241 177.730802,17.1235221 175.067163,17.1235221 C169.625729,17.1235221 165.097543,20.4022809 165.097543,27.0741739 C165.097543,33.7460669 169.625729,37.0248258 175.067163,37.0248258 Z M188.994189,36.4529492 L188.994189,26.8454233 C188.994189,24.0241657 190.896788,21.6985344 193.636531,21.6985344 C196.10991,21.6985344 197.898353,23.1472883 197.898353,26.5785476 L197.898353,36.4529492 L202.540695,36.4529492 L202.540695,26.5404225 C202.540695,21.0122826 200.181472,17.3903978 194.854194,17.3903978 C192.723283,17.3903978 190.668476,18.0385246 188.994189,20.2116554 L188.994189,9.76537723 L184.351847,9.76537723 L184.351847,36.4529492 L188.994189,36.4529492 Z M235.227349,36.4529492 L235.227349,14.3403896 L243.674889,14.3403896 L243.674889,9.76537723 L221.756947,9.76537723 L221.756947,9.76537723 L221.756947,14.3403896 L230.204487,14.3403896 L230.204487,36.4529492 L235.227349,36.4529492 Z" id="NeoTechiT" fill="#FFFFFF" fill-rule="nonzero"></path>
                </g>
                <polygon id="Rectangle" fill="#C335EF" points="214 10 219 10 219 15 214 15"></polygon>
                <polygon id="Rectangle-Copy-2" fill="#FFFFFF" points="214 18 219 18 219 37 214 37"></polygon>
            </g>
        </g>
    </g>
</svg>